<?xml version="1.0" encoding="UTF-8"?>
<svg id="Capa_1" xmlns="http://www.w3.org/2000/svg" version="1.1" viewBox="0 0 38.28 36.04">
  <!-- Generator: Adobe Illustrator 30.1.0, SVG Export Plug-In . SVG Version: 2.1.1 Build 136)  -->
  <defs>
    <style>
      .st0 {
        fill: #ffbf3c;
      }
    </style>
  </defs>
  <path class="st0" d="M27.34,14.72c0-1.43-.43-2.59-1.28-3.46-.85-.88-2.07-1.31-3.63-1.31-1.24,0-2.41.28-3.49.84-1.09.57-2.01,1.34-2.76,2.33-.76.99-1.26,2.08-1.51,3.29l-3.84,18.04c-.08.41-.36.77-.86,1.1-.5.33-.96.5-1.38.5H1.11C.37,36.04,0,35.74,0,35.14,0,34.96.01,34.83.03,34.73L7.04,1.72c.21-.87.76-1.31,1.63-1.31h5.18c.45,0,.83.16,1.14.47.31.31.48.69.52,1.14l.12,3.2c1.8-1.82,3.65-3.15,5.56-3.97C23.08.41,25.09,0,27.2,0,28.79,0,30.43.36,32.13,1.09c1.7.72,3.15,1.93,4.35,3.59,1.2,1.67,1.8,3.83,1.8,6.49,0,1.28-.16,2.66-.47,4.13l-4.13,19.46c-.17.85-.69,1.28-1.54,1.28h-7.82c-.74,0-1.11-.3-1.11-.9,0-.15.01-.28.03-.38l3.9-18.36c.14-.68.2-1.24.2-1.69"/>
</svg>