<?xml version="1.0" encoding="UTF-8"?>
<svg id="Capa_1" xmlns="http://www.w3.org/2000/svg" version="1.1" viewBox="0 0 34.85 36.53">
  <!-- Generator: Adobe Illustrator 30.1.0, SVG Export Plug-In . SVG Version: 2.1.1 Build 136)  -->
  <defs>
    <style>
      .st0 {
        fill: #ffbf3c;
      }
    </style>
  </defs>
  <path class="st0" d="M26.1,24.41c.33,0,.57.14.72.41l2.97,4.97c.17.29.26.57.26.82,0,.37-.24.72-.73,1.07-2.6,1.92-4.98,3.21-7.14,3.87-2.16.66-4.48.99-6.94.99-2.83,0-5.41-.66-7.74-1.98-2.32-1.32-4.16-3.13-5.5-5.43C.67,26.83,0,24.27,0,21.44,0,20.35.1,19.3.29,18.26c.64-3.61,1.96-6.79,3.97-9.55,2.01-2.76,4.51-4.91,7.52-6.43C14.79.76,18.05,0,21.56,0,23.69,0,25.77.52,27.81,1.55c2.03,1.04,3.72,2.64,5.04,4.8,1.33,2.16,1.99,4.84,1.99,8.01,0,1.21-.1,2.43-.29,3.67-.15,1.01-.41,1.76-.78,2.26-.37.5-.87.83-1.5,1-.63.17-1.5.26-2.6.26H9.83c.08,1.26.41,2.36.99,3.32.58.95,1.36,1.69,2.34,2.21.98.52,2.09.79,3.33.79,1.38,0,2.55-.12,3.52-.35.97-.23,1.76-.52,2.36-.86.6-.34,1.26-.78,1.98-1.32.43-.31.75-.53.96-.67.25-.17.52-.26.79-.26M15.64,9.88c-1.41.96-2.6,2.19-3.56,3.71h14.11c-.15-1.63-.81-2.89-1.95-3.8-1.14-.9-2.54-1.35-4.19-1.35-1.53,0-3,.48-4.41,1.44"/>
</svg>