<?xml version="1.0" encoding="UTF-8"?>
<svg id="Capa_1" xmlns="http://www.w3.org/2000/svg" version="1.1" viewBox="0 0 52.88 35.64">
  <!-- Generator: Adobe Illustrator 30.1.0, SVG Export Plug-In . SVG Version: 2.1.1 Build 136)  -->
  <defs>
    <style>
      .st0 {
        fill: #ffbf3c;
      }
    </style>
  </defs>
  <path class="st0" d="M30.4,21.09L41.94,1.23C42.41.41,43.05,0,43.86,0h8.2c.54,0,.81.19.81.55,0,.33-.18.77-.55,1.34l-20.08,32.52c-.29.43-.59.74-.89.93-.3.19-.64.29-1.03.29h-4.54c-.81,0-1.3-.41-1.46-1.22l-2.44-13.27-8.09,13.27c-.49.81-1.13,1.22-1.92,1.22h-4.25c-.81,0-1.3-.41-1.45-1.22L.06,2.15c-.04-.27-.06-.46-.06-.55C0,1.1.15.71.45.42c.3-.28.7-.42,1.21-.42h7.56c.8,0,1.25.44,1.37,1.31l2.62,18.68L23.36,1.23C23.8.41,24.44,0,25.28,0h8.06c.54,0,.81.19.81.55,0,.33-.18.77-.55,1.34l-5.36,8.43,2.15,10.76Z"/>
</svg>