<?xml version="1.0" encoding="UTF-8"?>
<svg id="Capa_1" xmlns="http://www.w3.org/2000/svg" version="1.1" viewBox="0 0 30.92 36.89">
  <!-- Generator: Adobe Illustrator 30.1.0, SVG Export Plug-In . SVG Version: 2.1.1 Build 136)  -->
  <defs>
    <style>
      .st0 {
        fill: #ffbf3c;
      }
    </style>
  </defs>
  <path class="st0" d="M0,29.9c0-.5.28-1,.84-1.48l4.54-3.9c.29-.23.56-.35.82-.35.29,0,.61.17.96.52,1.92,2.12,3.98,3.17,6.17,3.17,1.38,0,2.39-.22,3.05-.65.66-.43,1.08-1.04,1.25-1.82.04-.27.06-.45.06-.55,0-.43-.14-.8-.41-1.12-.27-.32-.75-.63-1.43-.93-.68-.3-1.65-.64-2.91-1.03-2.56-.79-4.54-1.99-5.93-3.58-1.4-1.59-2.1-3.55-2.1-5.87,0-.97.11-1.92.32-2.85.41-1.9,1.24-3.56,2.51-4.99,1.27-1.43,2.89-2.53,4.84-3.3,1.96-.77,4.15-1.16,6.58-1.16,1.94,0,3.64.27,5.1.81,1.46.55,2.66,1.19,3.58,1.94.92.74,1.81,1.59,2.66,2.55.27.31.41.6.41.87,0,.39-.3.8-.9,1.25l-4.71,3.49c-.37.29-.7.44-.99.44-.25,0-.53-.15-.84-.47-.52-.52-.96-.92-1.29-1.19-.34-.27-.77-.51-1.31-.71-.53-.2-1.18-.31-1.93-.31-1.05,0-1.88.17-2.5.5-.62.33-.99.74-1.1,1.22-.04.23-.06.39-.06.46,0,.35.12.64.38.88.25.23.62.45,1.12.67.49.21,1.27.51,2.34.88.87.29,1.7.58,2.47.87,2.48.95,4.27,2.2,5.35,3.77,1.09,1.56,1.63,3.3,1.63,5.22,0,.87-.11,1.78-.32,2.73-.54,2.48-1.59,4.55-3.14,6.21-1.55,1.66-3.41,2.88-5.58,3.65-2.17.78-4.5,1.17-6.98,1.17-2.5,0-4.82-.48-6.95-1.46-2.13-.97-3.86-2.45-5.18-4.45-.28-.37-.41-.73-.41-1.08"/>
</svg>