<?xml version="1.0" encoding="UTF-8"?>
<svg xmlns="http://www.w3.org/2000/svg" version="1.1" viewBox="0 0 1920 1080">
  <!-- Generator: Adobe Illustrator 30.1.0, SVG Export Plug-In . SVG Version: 2.1.1 Build 136)  -->
  <defs>
    <style>
      .st0 {
        fill: #fff;
      }

      .st1 {
        fill: #f8b12d;
      }
    </style>
  </defs>
  <rect width="1920" height="1080"/>
  <g id="Capa_1">
    <g>
      <path class="st0" d="M964.98,578.99c-24.2-.29-42.61-18.84-42.18-55.52.44-36.66,19.28-54.78,43.49-54.49,9.98.12,19.21,2.82,26.7,8.27l-12.52,21.09c-2.48-1.93-6.27-3.74-10.52-3.79-10.71-.13-16.71,10.95-16.92,28.99-.22,18.04,5.52,29.26,16.22,29.39,4.26.05,8.1-1.66,10.6-3.54l13.68,22.57c-5.32,3.31-14.29,7.2-28.55,7.03"/>
      <path class="st1" d="M938.14,600.15c0-.71-.21-1.28-.63-1.71-.42-.43-1.02-.65-1.79-.65-.61,0-1.19.14-1.72.42-.54.28-.99.66-1.36,1.15-.38.49-.62,1.03-.75,1.62l-1.89,8.89c-.04.2-.18.38-.42.55-.24.16-.47.24-.68.24h-3.68c-.36,0-.55-.15-.55-.44,0-.09,0-.15.02-.2l3.46-16.28c.1-.43.37-.65.8-.65h2.55c.22,0,.41.08.56.23.15.15.24.34.26.56l.06,1.58c.89-.9,1.8-1.55,2.74-1.96.94-.4,1.92-.61,2.97-.61.78,0,1.59.18,2.43.54.84.36,1.55.95,2.15,1.77.59.82.89,1.89.89,3.2,0,.63-.08,1.31-.23,2.04l-2.04,9.6c-.09.42-.34.63-.76.63h-3.86c-.36,0-.55-.15-.55-.44,0-.08,0-.14.01-.18l1.92-9.05c.07-.33.1-.61.1-.83"/>
      <path class="st1" d="M958.44,604.97c.16,0,.28.07.36.2l1.46,2.45c.09.14.13.28.13.4,0,.18-.12.36-.36.53-1.28.95-2.45,1.58-3.52,1.91-1.07.32-2.21.49-3.42.49-1.39,0-2.67-.33-3.82-.97-1.15-.65-2.05-1.54-2.71-2.68-.66-1.13-.99-2.4-.99-3.79,0-.54.05-1.06.15-1.56.32-1.78.97-3.35,1.96-4.71.99-1.36,2.23-2.42,3.71-3.17,1.48-.75,3.09-1.12,4.82-1.12,1.05,0,2.08.26,3.08.77,1,.51,1.83,1.3,2.49,2.37.66,1.06.98,2.38.98,3.95,0,.59-.05,1.2-.14,1.81-.08.5-.2.87-.39,1.11-.18.24-.43.41-.74.5-.31.09-.74.13-1.28.13h-9.78c.04.62.2,1.17.49,1.64.29.47.67.83,1.15,1.09.48.26,1.03.39,1.64.39.68,0,1.26-.06,1.74-.17.48-.11.86-.26,1.16-.42.3-.17.62-.38.97-.65.21-.15.37-.26.47-.33.12-.09.25-.13.39-.13M953.29,597.81c-.69.47-1.28,1.08-1.76,1.83h6.96c-.08-.8-.4-1.43-.96-1.87-.56-.44-1.25-.67-2.07-.67-.76,0-1.48.24-2.17.71"/>
      <path class="st1" d="M979.89,603.49l5.69-9.79c.23-.4.55-.6.95-.6h4.04c.27,0,.4.09.4.27,0,.16-.09.38-.27.66l-9.9,16.03c-.14.21-.29.36-.44.46-.15.1-.32.14-.51.14h-2.24c-.4,0-.64-.2-.72-.6l-1.2-6.54-3.99,6.54c-.24.4-.56.6-.95.6h-2.09c-.4,0-.64-.2-.72-.6l-3.03-15.9c-.02-.13-.03-.23-.03-.27,0-.25.07-.44.22-.58.15-.14.35-.21.59-.21h3.73c.39,0,.62.21.67.64l1.29,9.21,5.01-9.25c.22-.4.53-.6.95-.6h3.97c.27,0,.4.09.4.27,0,.16-.09.38-.27.66l-2.64,4.16,1.06,5.31Z"/>
      <path class="st1" d="M989.33,607.58c0-.25.14-.49.42-.73l2.24-1.92c.14-.11.28-.17.4-.17.14,0,.3.09.47.26.95,1.04,1.96,1.56,3.04,1.56.68,0,1.18-.11,1.51-.32.32-.21.53-.51.62-.9.02-.13.03-.22.03-.27,0-.21-.07-.4-.2-.55-.13-.16-.37-.31-.7-.46-.33-.15-.81-.32-1.43-.51-1.26-.39-2.24-.98-2.92-1.76-.69-.78-1.03-1.75-1.03-2.9,0-.48.05-.95.16-1.41.2-.94.61-1.76,1.24-2.46.63-.7,1.42-1.24,2.39-1.63.97-.38,2.05-.57,3.24-.57.96,0,1.8.13,2.52.4.72.27,1.31.59,1.77.96.45.37.89.78,1.31,1.25.13.15.2.3.2.43,0,.19-.15.39-.45.62l-2.32,1.72c-.18.15-.34.22-.49.22-.12,0-.26-.08-.42-.23-.26-.26-.47-.46-.64-.59-.17-.13-.38-.25-.65-.35-.26-.1-.58-.15-.95-.15-.52,0-.93.08-1.23.24-.3.16-.49.36-.54.6-.02.11-.03.19-.03.23,0,.17.06.32.19.43.12.11.31.22.55.33.24.1.63.25,1.15.43.43.14.84.29,1.22.43,1.22.47,2.1,1.09,2.64,1.86.54.77.8,1.63.8,2.57,0,.43-.05.88-.16,1.35-.27,1.22-.78,2.24-1.55,3.06-.76.82-1.68,1.42-2.75,1.8-1.07.38-2.22.57-3.44.57s-2.38-.24-3.43-.72c-1.05-.48-1.9-1.21-2.55-2.19-.14-.18-.2-.36-.2-.53"/>
      <path class="st1" d="M920.18,608.29c0,1.31-1.07,2.38-2.38,2.38s-2.38-1.06-2.38-2.38,1.06-2.38,2.38-2.38,2.38,1.07,2.38,2.38"/>
    </g>
  </g>
</svg>