<?xml version="1.0" encoding="UTF-8"?>
<svg id="Capa_1" xmlns="http://www.w3.org/2000/svg" version="1.1" viewBox="0 0 32.78 51.09">
  <!-- Generator: Adobe Illustrator 30.1.0, SVG Export Plug-In . SVG Version: 2.1.1 Build 136)  -->
  <defs>
    <style>
      .st0 {
        fill: #fff;
      }
    </style>
  </defs>
  <path class="st0" d="M22.43,50.2c-.35-.82-.49-1.5-.56-2.12-1.64,1.92-4.11,3.02-7.68,3.02C5.14,51.09,0,44.44,0,33.19,0,22.83,4.73,13.92,15.22,13.92c1.72,0,3.78.62,4.73,1.24-.21-1.04-.41-3.84-.41-5.64V0l11.94,1.58v34.56c0,8.98.28,11.32,1.3,14.06h-10.35ZM19.54,24.49c-.33-.75-1.43-1.37-2.53-1.37-3.09,0-4.05,2.26-4.05,10.28,0,5.08.56,8.71,3.98,8.71,1.24,0,2.2-.55,2.6-1.16v-16.46Z"/>
</svg>