<?xml version="1.0" encoding="UTF-8"?>
<svg id="Capa_1" xmlns="http://www.w3.org/2000/svg" version="1.1" viewBox="0 0 32.24 37.72">
  <!-- Generator: Adobe Illustrator 30.1.0, SVG Export Plug-In . SVG Version: 2.1.1 Build 136)  -->
  <defs>
    <style>
      .st0 {
        fill: #fff;
      }
    </style>
  </defs>
  <path class="st0" d="M25.38,37.72c-1.71-.55-3.84-2.4-4.39-3.5-1.72,1.43-4.66,2.95-8.85,2.95C3.36,37.17,0,31.96,0,25.65c0-6.72,5.83-11.52,15.71-11.52.48,0,1.65,0,1.99.07v-2.19c0-2.06-.28-3.3-2.87-3.29-3.98,0-7.08,1.44-10.09,3.7L.42,5C4.79,2.33,10.5,0,16.33,0c6.71,0,11.45,2.27,12.74,6.45.49,1.57.55,2.88.55,5.48l-.13,12.21c0,2.94.27,5.34,2.74,6.92l-6.86,6.65ZM17.7,21.61c-.14,0-.34,0-.47,0-4.6,0-5.62,1.91-5.63,3.91,0,2.05,1.24,3.42,3.29,3.43,1.02,0,2.4-.63,2.81-1.17v-6.17Z"/>
</svg>