<?xml version="1.0" encoding="UTF-8"?>
<svg id="Capa_1" xmlns="http://www.w3.org/2000/svg" version="1.1" viewBox="0 0 32.78 51.09">
  <!-- Generator: Adobe Illustrator 30.1.0, SVG Export Plug-In . SVG Version: 2.1.1 Build 136)  -->
  <defs>
    <style>
      .st0 {
        fill: #fff;
      }
    </style>
  </defs>
  <path class="st0" d="M22.43,50.2c-.35-.82-.48-1.5-.55-2.12-1.66,1.92-4.11,3.02-7.68,3.02-9.05,0-14.2-6.65-14.2-17.9C0,22.83,4.74,13.92,15.22,13.92c1.72,0,3.78.62,4.74,1.24-.21-1.04-.4-3.84-.4-5.64V0l11.93,1.58v34.56c0,8.98.28,11.32,1.3,14.06h-10.35ZM19.55,24.49c-.34-.75-1.44-1.37-2.55-1.37-3.08,0-4.03,2.26-4.03,10.28,0,5.08.54,8.71,3.97,8.71,1.24,0,2.21-.55,2.62-1.16v-16.46Z"/>
</svg>