<?xml version="1.0" encoding="UTF-8"?>
<svg id="Capa_1" xmlns="http://www.w3.org/2000/svg" version="1.1" viewBox="0 0 32.23 37.72">
  <!-- Generator: Adobe Illustrator 30.1.0, SVG Export Plug-In . SVG Version: 2.1.1 Build 136)  -->
  <defs>
    <style>
      .st0 {
        fill: #fff;
      }
    </style>
  </defs>
  <path class="st0" d="M25.37,37.72c-1.72-.55-3.84-2.4-4.38-3.5-1.72,1.43-4.67,2.95-8.85,2.95C3.36,37.17,0,31.96,0,25.65c0-6.72,5.82-11.52,15.7-11.52.49,0,1.65,0,1.99.07v-2.2c0-2.05-.28-3.29-2.88-3.29-3.98,0-7.06,1.44-10.07,3.7L.41,5C4.8,2.34,10.49,0,16.32,0c6.73,0,11.45,2.27,12.75,6.45.49,1.57.55,2.88.55,5.48l-.14,12.21c0,2.94.27,5.34,2.75,6.92l-6.86,6.65ZM17.69,21.61c-.13,0-.34,0-.48,0-4.59,0-5.63,1.92-5.63,3.91,0,2.05,1.25,3.42,3.3,3.43,1.03,0,2.41-.63,2.81-1.17v-6.17Z"/>
</svg>